<svg width="36" height="36" viewBox="0 0 36 36" fill="none" xmlns="http://www.w3.org/2000/svg">
<g clip-path="url(#clip0_3120_2773)">
<path d="M24.0625 22.875L25.9544 27.3131L29.215 31.7981C29.7194 31.5075 30.1487 31.0856 30.4506 30.5625L33.9156 24.5625C34.2175 24.0413 34.3675 23.4581 34.3675 22.875L29.0463 22.3125L24.0625 22.875Z" fill="#EA4335"/>
<path d="M12.1992 3.9433C12.2048 3.93955 12.2086 3.93393 12.2142 3.93018C12.2086 3.93393 12.2048 3.93955 12.1992 3.9433Z" fill="#00832D"/>
<path d="M12.5266 3.66553C12.5209 3.67115 12.5134 3.6749 12.5078 3.67865C12.5134 3.6749 12.5209 3.67115 12.5266 3.66553Z" fill="#00832D"/>
<path d="M11.9258 4.24147C11.9277 4.23959 11.9295 4.23771 11.9314 4.23584C11.9295 4.23771 11.9277 4.23959 11.9258 4.24147Z" fill="#00832D"/>
<path d="M23.1547 3.45187C22.6503 3.16125 22.0709 3 21.4672 3H14.5391C13.9391 3 13.3541 3.165 12.8516 3.45187L14.8128 8.01L17.9891 12.3488L18.0022 12.375L21.2047 7.98938L23.1547 3.45187Z" fill="#00832D"/>
<path d="M11.9398 22.875L6.62797 22.125L1.63672 22.875C1.63672 23.4562 1.78672 24.0375 2.08672 24.5606L5.55172 30.5625C5.85359 31.0837 6.28297 31.5056 6.78734 31.7981L9.99172 27.5456L11.9398 22.875Z" fill="#0066DA"/>
<path d="M29.1506 12.9373L24.3881 4.68729C24.0863 4.16416 23.6569 3.74229 23.1525 3.45166L18 12.3748L24.0619 22.8748H34.365C34.365 22.2917 34.215 21.7104 33.9131 21.1873L29.1506 12.9373Z" fill="#FFBA00"/>
<path d="M24.0653 22.875H11.9416L6.78906 31.7981C7.29344 32.0887 7.87281 32.25 8.47656 32.25H27.5284C28.1322 32.25 28.7116 32.0887 29.2159 31.7981L24.0653 22.875Z" fill="#2684FC"/>
<path d="M24.0653 22.875H11.9416L6.78906 31.7981C7.29344 32.0887 7.87281 32.25 8.47656 32.25H27.5284C28.1322 32.25 28.7116 32.0887 29.2159 31.7981L24.0653 22.875Z" fill="#2684FC"/>
<path d="M18.0017 12.3748L12.8511 3.45166C12.3467 3.74229 11.9192 4.16229 11.6173 4.68354L2.08672 21.1929C1.78672 21.7142 1.63672 22.2954 1.63672 22.8748H11.9398L18.0017 12.3748Z" fill="#00AC47"/>
</g>
<defs>
<clipPath id="clip0_3120_2773">
<rect width="36" height="36" fill="white"/>
</clipPath>
</defs>
</svg>
